<svg width="58" height="58" viewBox="0 0 58 58" fill="none" xmlns="http://www.w3.org/2000/svg">
<path d="M21.355 9.82222C21.355 8.81584 22.1709 8 23.1772 8H30.4661C31.4725 8 32.2884 8.81584 32.2884 9.82222V10.7333C32.2884 13.2493 30.2488 15.2889 27.7328 15.2889H25.9106C23.3946 15.2889 21.355 13.2493 21.355 10.7333V9.82222Z" fill="#FDC886"/>
<path d="M20.2994 19.448C20.9539 18.5356 22.0115 18.0222 23.1344 18.0222H30.509C31.6319 18.0222 32.6895 18.5356 33.344 19.448C35.5301 22.4955 40.43 29.8497 41.3995 35.7889C41.7804 38.1224 42.1832 39.9719 41.661 41.8605C40.7371 45.2017 36.7376 46.2667 33.271 46.2667H20.3723C16.9058 46.2667 12.9062 45.2017 11.9824 41.8605C11.4602 39.9719 11.863 38.1224 12.2439 35.7889C13.2134 29.8497 18.1133 22.4955 20.2994 19.448Z" fill="#FDC886"/>
<path d="M27.4413 40.104C27.1255 40.104 26.8643 39.9946 26.6578 39.776C26.4513 39.5695 26.348 39.3143 26.348 39.0106V37.5164L26.84 37.9538C26.0018 37.9295 25.2729 37.8262 24.6533 37.644C24.0338 37.4618 23.5175 37.2613 23.1044 37.0426C22.8372 36.909 22.6489 36.7268 22.5396 36.496C22.4424 36.2652 22.4059 36.0283 22.4302 35.7853C22.4545 35.5302 22.5396 35.3115 22.6853 35.1293C22.8311 34.9349 23.0194 34.8074 23.2502 34.7466C23.4932 34.6859 23.7665 34.7345 24.0702 34.8924C24.3618 35.0503 24.7687 35.2143 25.2911 35.3844C25.8135 35.5423 26.4513 35.6213 27.2044 35.6213C27.7633 35.6213 28.2127 35.5606 28.5529 35.4391C28.893 35.3055 29.136 35.1354 29.2818 34.9289C29.4397 34.7223 29.5187 34.4855 29.5187 34.2182C29.5187 33.9995 29.464 33.8052 29.3547 33.6351C29.2575 33.465 29.0813 33.3192 28.8262 33.1978C28.5833 33.0641 28.2553 32.9548 27.8422 32.8698L25.8378 32.4324C24.7202 32.1895 23.888 31.7764 23.3413 31.1933C22.7947 30.5981 22.5213 29.8327 22.5213 28.8973C22.5213 28.1684 22.6975 27.5185 23.0498 26.9475C23.4142 26.3766 23.9123 25.9149 24.544 25.5626C25.1879 25.2103 25.941 24.9978 26.8036 24.9249L26.348 25.2164V23.8315C26.348 23.5278 26.4513 23.2727 26.6578 23.0662C26.8643 22.8475 27.1255 22.7382 27.4413 22.7382C27.745 22.7382 28.0002 22.8475 28.2067 23.0662C28.4132 23.2727 28.5164 23.5278 28.5164 23.8315V25.2164L28.0609 24.8884C28.559 24.9127 29.0935 25.0099 29.6644 25.18C30.2476 25.3379 30.7517 25.5687 31.1769 25.8724C31.4077 26.0182 31.5656 26.2004 31.6507 26.4191C31.7479 26.6378 31.7722 26.8564 31.7236 27.0751C31.6871 27.2938 31.596 27.4881 31.4502 27.6582C31.3044 27.8161 31.1101 27.9194 30.8671 27.968C30.6363 28.0044 30.363 27.9437 30.0471 27.7858C29.7191 27.6278 29.3607 27.4942 28.972 27.3849C28.5833 27.2755 28.1034 27.2209 27.5324 27.2209C26.8157 27.2209 26.2569 27.3666 25.856 27.6582C25.4673 27.9498 25.2729 28.3263 25.2729 28.788C25.2729 29.1281 25.3883 29.4015 25.6191 29.608C25.8621 29.8145 26.2812 29.9846 26.8764 30.1182L28.8991 30.5555C30.0532 30.8106 30.9036 31.2237 31.4502 31.7946C32.009 32.3656 32.2884 33.1066 32.2884 34.0178C32.2884 34.7345 32.1123 35.3723 31.76 35.9311C31.4077 36.4778 30.9218 36.9212 30.3022 37.2613C29.6827 37.6015 28.9599 37.8201 28.1338 37.9173L28.5164 37.4982V39.0106C28.5164 39.3143 28.4132 39.5695 28.2067 39.776C28.0123 39.9946 27.7572 40.104 27.4413 40.104Z" fill="#FFF4E7"/>
<circle cx="39.9778" cy="41.7111" r="6.37778" fill="#FDC886" stroke="#FFF4E7" stroke-width="1.82222"/>
<rect x="38.533" y="38.9778" width="5.46667" height="1.82222" rx="0.911111" transform="rotate(45 38.533 38.9778)" fill="#FFF4E7"/>
<rect x="37.2445" y="42.8433" width="5.46667" height="1.82222" rx="0.911111" transform="rotate(-45 37.2445 42.8433)" fill="#FFF4E7"/>
</svg>
